<svg width="722" height="89" viewBox="0 0 722 89" fill="none" xmlns="http://www.w3.org/2000/svg">
<path d="M0.527853 87.2519L4.4013 88.5415L5.6909 84.668L1.81745 83.3784L0.527853 87.2519ZM716.224 85.96C716.224 87.4327 717.418 88.6266 718.891 88.6266C720.363 88.6266 721.557 87.4327 721.557 85.96C721.557 84.4872 720.363 83.2933 718.891 83.2933C717.418 83.2933 716.224 84.4872 716.224 85.96ZM174.888 23.6905L174.768 23.2051L174.888 23.6905ZM547.112 23.6905L546.992 24.1759L547.112 23.6905ZM3.10938 85.96C3.33314 86.4071 3.33339 86.407 3.33393 86.4067C3.33451 86.4064 3.33535 86.406 3.33651 86.4054C3.33882 86.4043 3.34233 86.4025 3.34702 86.4002C3.3564 86.3955 3.37052 86.3884 3.38936 86.3791C3.42704 86.3603 3.48358 86.3322 3.55875 86.2949C3.70907 86.2204 3.93388 86.1093 4.23125 85.9634C4.826 85.6715 5.71098 85.2402 6.87085 84.6829C9.19057 83.5682 12.6098 81.9495 17.0054 79.9347C25.7969 75.9051 38.4939 70.2909 54.1128 63.9548C85.3521 51.2818 128.273 35.7233 175.008 24.1759L174.768 23.2051C127.973 34.7675 85.0043 50.3437 53.7369 63.0281C38.1024 69.3706 25.3917 74.9907 16.5888 79.0257C12.1872 81.0431 8.76257 82.6644 6.43773 83.7815C5.27531 84.3401 4.38784 84.7726 3.7907 85.0657C3.49213 85.2122 3.26614 85.3238 3.11465 85.3989C3.0389 85.4365 2.98178 85.4649 2.94353 85.4839C2.9244 85.4935 2.90999 85.5006 2.90033 85.5055C2.8955 85.5079 2.89185 85.5097 2.8894 85.5109C2.88817 85.5115 2.88722 85.512 2.88661 85.5123C2.88596 85.5126 2.88561 85.5128 3.10938 85.96ZM175.008 24.1759C236.356 9.01758 304.288 1.45996 361 1.45996V0.459961C304.21 0.459961 236.198 8.0266 174.768 23.2051L175.008 24.1759ZM361 1.45996C417.712 1.45996 485.644 9.01758 546.992 24.1759L547.232 23.2051C485.802 8.0266 417.79 0.459961 361 0.459961V1.45996ZM546.992 24.1759C593.727 35.7233 636.648 51.2818 667.887 63.9548C683.506 70.2909 696.203 75.9051 704.995 79.9347C709.39 81.9495 712.809 83.5682 715.129 84.6829C716.289 85.2402 717.174 85.6715 717.769 85.9634C718.066 86.1093 718.291 86.2204 718.441 86.2949C718.516 86.3322 718.573 86.3603 718.611 86.3791C718.629 86.3884 718.644 86.3955 718.653 86.4002C718.658 86.4025 718.661 86.4043 718.664 86.4054C718.665 86.406 718.665 86.4064 718.666 86.4067C718.667 86.407 718.667 86.4071 718.891 85.96C719.114 85.5128 719.114 85.5126 719.113 85.5123C719.113 85.512 719.112 85.5115 719.111 85.5109C719.108 85.5097 719.104 85.5079 719.1 85.5055C719.09 85.5006 719.076 85.4935 719.056 85.4839C719.018 85.4649 718.961 85.4365 718.885 85.3989C718.734 85.3238 718.508 85.2122 718.209 85.0657C717.612 84.7726 716.725 84.3401 715.562 83.7815C713.237 82.6644 709.813 81.0431 705.411 79.0257C696.608 74.9907 683.898 69.3706 668.263 63.0281C636.996 50.3437 594.027 34.7675 547.232 23.2051L546.992 24.1759Z" fill="white"/>
</svg>
